<svg width="162" height="44" viewBox="0 0 162 44" fill="none" xmlns="http://www.w3.org/2000/svg">
<path d="M120.896 0.823242H155.955C159.294 0.823242 162 3.4971 162 6.79546V37.851C162 41.1494 159.294 43.8232 155.955 43.8232H120.896V0.823242Z" fill="#1B1B1B"/>
<path d="M119.687 2.01769H155.955C158.626 2.01769 160.791 4.15677 160.791 6.79546V37.851C160.791 40.4897 158.626 42.6288 155.955 42.6288H119.687V2.01769Z" fill="white"/>
<path d="M4.83582 6.79546C4.83582 3.4971 7.54216 0.823242 10.8806 0.823242H120.896C124.234 0.823242 126.94 3.4971 126.94 6.79546V37.851C126.94 41.1494 124.234 43.8232 120.896 43.8232H10.8806C7.54216 43.8232 4.83582 41.1494 4.83582 37.851V6.79546Z" fill="#1B1B1B"/>
<path d="M34.8371 30.8516C34.2568 30.8516 33.5959 30.7481 32.8544 30.541C32.129 30.334 31.3634 30.111 30.5574 29.8721C29.7675 29.6173 28.9777 29.4342 28.1878 29.3227C27.6398 29.8323 27.124 30.1986 26.6404 30.4216C26.1729 30.6286 25.7538 30.7321 25.3831 30.7321C24.9156 30.7321 24.5207 30.5968 24.1983 30.326C23.8759 30.0553 23.6341 29.7129 23.4729 29.2988C23.3117 28.8688 23.2311 28.4308 23.2311 27.9849C23.2311 27.5231 23.3117 27.0851 23.4729 26.671C23.6502 26.2569 23.9162 25.9225 24.2708 25.6677C24.6254 25.3969 25.0768 25.2616 25.6248 25.2616C25.7377 25.2616 25.8586 25.2695 25.9875 25.2855C26.1165 25.3014 26.2535 25.3253 26.3986 25.3571C26.7048 24.4334 26.9708 23.4142 27.1965 22.2994C27.4383 21.1686 27.6237 20.0618 27.7526 18.9788C27.8977 17.8958 27.9702 16.9562 27.9702 16.1599C27.9702 15.8414 27.9541 15.6184 27.9219 15.491C27.8896 15.3477 27.8332 15.2044 27.7526 15.061L27.7284 14.9894C27.9219 14.4797 28.2442 14.0816 28.6956 13.7949C29.1469 13.5082 29.6225 13.3649 30.1222 13.3649C30.6702 13.3649 31.1216 13.564 31.4762 13.9621C31.8308 14.3444 32.0081 14.9894 32.0081 15.8971C32.0081 16.4705 31.9356 17.1871 31.7905 18.0471C31.6616 18.8912 31.4762 19.8069 31.2344 20.7944C30.9926 21.7658 30.7266 22.7294 30.4365 23.6849C30.1463 24.6405 29.8562 25.4925 29.566 26.241C30.2753 26.4003 30.9845 26.5834 31.6938 26.7905C32.4192 26.9975 33.1284 27.101 33.8216 27.101C34.3535 27.101 34.8613 27.0055 35.3448 26.8144C35.8445 26.6232 36.312 26.2729 36.7472 25.7632C37.0696 25.9703 37.3034 26.2649 37.4484 26.6471C37.6096 27.0294 37.6902 27.4355 37.6902 27.8655C37.6902 28.3432 37.5854 28.8131 37.3759 29.2749C37.1825 29.7208 36.8762 30.0951 36.4571 30.3977C36.038 30.7003 35.498 30.8516 34.8371 30.8516Z" fill="white"/>
<path d="M36.0181 20.5316L35.9697 20.3166C36.8724 19.7432 37.3238 18.9231 37.3238 17.856C37.3238 17.4897 37.2754 17.0836 37.1787 16.6377C37.1464 16.4625 37.1142 16.2873 37.082 16.1121C37.0658 15.9369 37.0578 15.7618 37.0578 15.5866C37.0578 14.7744 37.2754 14.1612 37.7106 13.7471C38.162 13.3331 38.6617 13.126 39.2097 13.126C39.8545 13.126 40.3542 13.3649 40.7088 13.8427C41.0635 14.3045 41.2408 14.8779 41.2408 15.5627C41.2408 16.0882 41.1199 16.6456 40.8781 17.2349C40.6524 17.8082 40.3058 18.3497 39.8384 18.8594C39.2581 19.4645 38.6214 19.8945 37.9282 20.1494C37.2512 20.4042 36.6145 20.5316 36.0181 20.5316Z" fill="white"/>
<path d="M48.7208 30.8038C48.1566 30.8038 47.665 30.6206 47.2459 30.2544C46.8268 29.8881 46.6172 29.2908 46.6172 28.4627C46.6172 28.3831 46.6172 28.3034 46.6172 28.2238C46.6172 28.1442 46.6253 28.0645 46.6414 27.9849C46.1578 28.9405 45.6098 29.6492 44.9972 30.111C44.4008 30.5569 43.7963 30.7799 43.1838 30.7799C42.6196 30.7799 42.0877 30.5888 41.588 30.2066C41.0883 29.8084 40.6853 29.2271 40.379 28.4627C40.0727 27.6982 39.9196 26.7745 39.9196 25.6916C39.9196 24.5768 40.0727 23.5814 40.379 22.7055C40.7014 21.8295 41.1205 21.089 41.6363 20.4838C42.1521 19.8786 42.7163 19.4247 43.3289 19.1221C43.9414 18.8036 44.5378 18.6444 45.1181 18.6444C45.7629 18.6444 46.3432 18.8434 46.859 19.2416C47.3748 19.6238 47.7295 20.2369 47.9229 21.081C47.9713 20.8103 48.0035 20.5634 48.0196 20.3405C48.0518 20.1175 48.068 19.9662 48.068 19.8866C48.0841 19.4566 48.3017 19.1381 48.7208 18.931C49.156 18.724 49.6315 18.6205 50.1474 18.6205C50.5987 18.6205 51.0259 18.7081 51.4289 18.8832C51.8319 19.0584 52.1059 19.3531 52.2509 19.7671L52.2993 19.9105C52.1059 20.3405 51.9124 20.8581 51.719 21.4632C51.5256 22.0684 51.3483 22.7055 51.1871 23.3744C51.0259 24.0273 50.8969 24.6723 50.8002 25.3094C50.7035 25.9305 50.6551 26.4799 50.6551 26.9577C50.6551 27.4832 50.7115 27.8495 50.8244 28.0566C50.9372 28.2477 51.0742 28.3432 51.2354 28.3432C51.5095 28.3432 51.7593 28.1521 51.985 27.7699L52.1784 27.8655C52.1784 28.4069 52.0011 28.9006 51.6465 29.3466C51.2918 29.7925 50.8486 30.1508 50.3166 30.4216C49.7847 30.6764 49.2527 30.8038 48.7208 30.8038ZM44.7796 27.7699C45.1987 27.7699 45.6581 27.4036 46.1578 26.671C46.6736 25.9225 47.1169 24.8555 47.4877 23.4699C47.5199 23.3266 47.5521 23.1912 47.5844 23.0638C47.6166 22.9205 47.6408 22.7851 47.6569 22.6577C47.399 22.0684 47.125 21.6544 46.8348 21.4155C46.5608 21.1606 46.2868 21.0332 46.0127 21.0332C45.6098 21.0332 45.231 21.2482 44.8763 21.6782C44.5378 22.0923 44.2557 22.6179 44.0301 23.2549C43.8205 23.8919 43.7157 24.529 43.7157 25.166C43.7157 26.0419 43.8124 26.6949 44.0059 27.1249C44.2154 27.5549 44.4733 27.7699 44.7796 27.7699Z" fill="white"/>
<path d="M59.3014 35.4621C58.5116 35.4621 57.8587 35.2312 57.3429 34.7694C56.8271 34.3075 56.5692 33.6545 56.5692 32.8105C56.5692 31.9027 56.8916 30.8356 57.5364 29.6094C57.4235 29.6412 57.3107 29.6651 57.1978 29.681C57.085 29.6969 56.9722 29.7049 56.8593 29.7049C55.9244 29.7049 55.1346 29.3068 54.4898 28.5105C53.8611 27.6982 53.5468 26.5755 53.5468 25.1421C53.5468 23.8521 53.7967 22.7134 54.2964 21.726C54.8122 20.7386 55.465 19.9662 56.2549 19.4088C57.0447 18.8514 57.8668 18.5727 58.7211 18.5727C59.3175 18.5727 59.8575 18.724 60.3411 19.0266C60.8247 19.3132 61.2196 19.7831 61.5259 20.436C61.542 20.2768 61.5501 20.1334 61.5501 20.006C61.5501 19.8786 61.5501 19.7592 61.5501 19.6477C61.5501 19.3769 61.7596 19.154 62.1787 18.9788C62.5978 18.8036 63.0653 18.716 63.5811 18.716C64.0486 18.716 64.4838 18.8036 64.8868 18.9788C65.2898 19.154 65.5558 19.4486 65.6847 19.8627L65.7331 20.006C65.588 20.1334 65.459 20.5475 65.3462 21.2482C65.2495 21.949 65.1286 22.9205 64.9835 24.1627C64.8868 24.9431 64.7659 25.8349 64.6208 26.8382C64.4758 27.8256 64.2743 28.829 64.0163 29.8482C63.7746 30.8516 63.4522 31.7753 63.0492 32.6194C62.6462 33.4794 62.1384 34.1642 61.5259 34.6738C60.9134 35.1994 60.1719 35.4621 59.3014 35.4621ZM58.5035 26.9577C58.971 26.9577 59.4868 26.5834 60.051 25.8349C60.6313 25.0705 61.0907 23.9795 61.4292 22.5621C61.139 21.941 60.8408 21.5031 60.5346 21.2482C60.2444 20.9775 59.9462 20.8421 59.6399 20.8421C59.237 20.8421 58.8581 21.0412 58.5035 21.4394C58.1489 21.8375 57.8587 22.3471 57.6331 22.9682C57.4235 23.5734 57.3187 24.2025 57.3187 24.8555C57.3187 25.5244 57.4316 26.0419 57.6572 26.4082C57.8829 26.7745 58.165 26.9577 58.5035 26.9577ZM58.2134 32.7149C58.7614 32.7149 59.3175 32.1814 59.8817 31.1144C60.462 30.0632 60.865 28.5742 61.0907 26.6471C59.8656 28.2875 59.0113 29.5536 58.5277 30.4455C58.0602 31.3214 57.8265 31.9425 57.8265 32.3088C57.8265 32.5795 57.9555 32.7149 58.2134 32.7149Z" fill="white"/>
<path d="M71.8946 30.8516C70.7179 30.8516 69.7426 30.6206 68.9689 30.1588C68.1952 29.681 67.6149 29.0599 67.228 28.2955C66.8411 27.5151 66.6477 26.679 66.6477 25.7871C66.6477 24.9431 66.8089 24.099 67.1313 23.2549C67.4698 22.3949 67.9534 21.6145 68.582 20.9138C69.2268 20.2131 70.0006 19.6477 70.9032 19.2177C71.8221 18.7877 72.8537 18.5727 73.9982 18.5727C75.4167 18.5727 76.4483 18.8912 77.0931 19.5282C77.754 20.1494 78.0844 20.9058 78.0844 21.7977C78.0844 22.5621 77.8749 23.2708 77.4558 23.9238C77.0528 24.5608 76.5128 25.0784 75.8358 25.4766C75.1588 25.8588 74.4173 26.0499 73.6113 26.0499C73.1922 26.0499 72.765 25.9862 72.3298 25.8588C71.8946 25.7314 71.4674 25.5323 71.0483 25.2616C71.1289 26.249 71.4191 26.9656 71.9188 27.4116C72.4185 27.8575 73.0149 28.0805 73.708 28.0805C74.1916 28.0805 74.6752 27.9929 75.1588 27.8177C75.6423 27.6266 76.0856 27.3877 76.4886 27.101C76.9077 26.7984 77.2301 26.4799 77.4558 26.1455L77.625 26.2649C77.625 27.0931 77.4477 27.8018 77.0931 28.391C76.7546 28.9644 76.3032 29.4342 75.7391 29.8005C75.1749 30.1668 74.5543 30.4375 73.8773 30.6127C73.2164 30.7719 72.5555 30.8516 71.8946 30.8516ZM72.4507 24.4016C72.9665 24.4016 73.3856 24.2582 73.708 23.9716C74.0304 23.669 74.2722 23.3186 74.4334 22.9205C74.5946 22.5223 74.6752 22.1719 74.6752 21.8694C74.6752 21.5031 74.5704 21.2005 74.3609 20.9616C74.1513 20.7068 73.8612 20.5794 73.4904 20.5794C73.2003 20.5794 72.8779 20.6829 72.5232 20.8899C72.1847 21.0969 71.8785 21.4553 71.6044 21.9649C71.3304 22.4586 71.1531 23.1514 71.0725 24.0432C71.5883 24.2821 72.0477 24.4016 72.4507 24.4016Z" fill="white"/>
<path d="M82.1813 30.756C81.5849 30.756 81.0449 30.5251 80.5613 30.0632C80.0777 29.5855 79.8359 28.9245 79.8359 28.0805C79.8359 27.6664 79.8923 27.1966 80.0052 26.671C80.118 26.1455 80.2389 25.6119 80.3679 25.0705C80.5129 24.529 80.6419 24.0194 80.7547 23.5416C80.8676 23.0638 80.924 22.6736 80.924 22.371C80.924 22.0525 80.8595 21.8056 80.7305 21.6305C80.6016 21.4394 80.4323 21.3438 80.2228 21.3438C79.9487 21.3438 79.6505 21.5031 79.3282 21.8216L79.1831 21.726C79.167 21.4712 79.2234 21.1686 79.3523 20.8182C79.4813 20.4679 79.6747 20.1334 79.9326 19.8149C80.2067 19.4805 80.5532 19.2018 80.9723 18.9788C81.3914 18.7558 81.8911 18.6444 82.4714 18.6444C83.3258 18.6444 83.9544 18.8912 84.3574 19.3849C84.7765 19.8627 84.9861 20.4519 84.9861 21.1527C84.9861 21.4075 84.9619 21.6544 84.9135 21.8932C85.252 21.3995 85.6711 20.9058 86.1708 20.4121C86.6705 19.9025 87.2186 19.4805 87.815 19.146C88.4276 18.8116 89.0562 18.6444 89.701 18.6444C90.4586 18.6444 90.9744 18.8832 91.2485 19.361C91.5225 19.8388 91.6595 20.436 91.6595 21.1527C91.6595 21.8216 91.587 22.5382 91.4419 23.3027C91.2968 24.0671 91.1517 24.8077 91.0067 25.5244C90.8616 26.2251 90.789 26.8144 90.789 27.2921C90.789 27.9292 90.9744 28.2477 91.3452 28.2477C91.5386 28.2477 91.7078 28.1919 91.8529 28.0805C91.998 27.9531 92.0947 27.8336 92.1431 27.7221L92.3123 27.7938C92.3123 28.3831 92.1431 28.9006 91.8046 29.3466C91.4822 29.7925 91.0711 30.1429 90.5714 30.3977C90.0717 30.6366 89.564 30.756 89.0482 30.756C88.4195 30.756 87.8634 30.541 87.3798 30.111C86.8962 29.681 86.6544 28.9803 86.6544 28.0088C86.6544 27.4355 86.727 26.8144 86.872 26.1455C87.0332 25.4766 87.1863 24.8316 87.3314 24.2105C87.4765 23.5894 87.549 23.0797 87.549 22.6816C87.549 22.4427 87.5007 22.2595 87.404 22.1321C87.3234 21.9888 87.1702 21.9171 86.9446 21.9171C86.5738 21.9171 86.1628 22.0844 85.7114 22.4188C85.2762 22.7532 84.8974 23.1992 84.575 23.7566C84.2687 24.314 84.1156 24.9271 84.1156 25.596C84.1156 26.026 84.164 26.4401 84.2607 26.8382C84.3735 27.2364 84.4299 27.6664 84.4299 28.1282C84.4299 28.9882 84.2043 29.6412 83.7529 30.0871C83.3016 30.5331 82.7777 30.756 82.1813 30.756Z" fill="white"/>
<path d="M97.0482 30.7799C96.4679 30.7799 95.9199 30.5808 95.404 30.1827C94.9043 29.7845 94.4933 29.2032 94.1709 28.4388C93.8646 27.6744 93.7115 26.7506 93.7115 25.6677C93.7115 24.5529 93.8727 23.5575 94.1951 22.6816C94.5175 21.8056 94.9366 21.0651 95.4524 20.4599C95.9843 19.8388 96.5566 19.369 97.1691 19.0505C97.7978 18.7319 98.4103 18.5727 99.0067 18.5727C99.6676 18.5727 100.256 18.7797 100.772 19.1938C101.288 19.5919 101.642 20.221 101.836 21.081C101.981 20.2847 102.102 19.5282 102.198 18.8116C102.311 18.079 102.368 17.434 102.368 16.8766C102.368 16.144 102.271 15.6105 102.077 15.276V15.1327C102.448 14.7186 102.851 14.416 103.286 14.2249C103.738 14.0179 104.165 13.9144 104.568 13.9144C105.1 13.9144 105.551 14.0816 105.922 14.416C106.293 14.7345 106.478 15.1964 106.478 15.8016C106.478 16.136 106.422 16.6297 106.309 17.2827C106.196 17.9356 106.059 18.6842 105.898 19.5282C105.737 20.3564 105.567 21.2164 105.39 22.1082C105.229 22.9842 105.092 23.8282 104.979 24.6405C104.866 25.4368 104.81 26.1295 104.81 26.7188C104.81 27.2125 104.858 27.6106 104.955 27.9132C105.068 28.1999 105.245 28.3432 105.487 28.3432C105.664 28.3432 105.841 28.2875 106.019 28.176C106.212 28.0486 106.341 27.9053 106.406 27.746L106.575 27.8655C106.575 28.391 106.406 28.8768 106.067 29.3227C105.729 29.7527 105.301 30.1031 104.786 30.3738C104.27 30.6445 103.738 30.7799 103.19 30.7799C102.593 30.7799 102.118 30.6206 101.763 30.3021C101.425 29.9677 101.183 29.5456 101.038 29.036C100.893 28.5264 100.812 28.0008 100.796 27.4594C100.296 28.606 99.7079 29.4501 99.0309 29.9916C98.37 30.5171 97.7091 30.7799 97.0482 30.7799ZM98.6682 27.746C99.0873 27.746 99.5548 27.3718 100.071 26.6232C100.586 25.8747 101.038 24.7838 101.425 23.3505L101.57 22.6099C101.312 22.0206 101.03 21.6066 100.723 21.3677C100.433 21.1129 100.151 20.9855 99.8772 20.9855C99.4742 20.9855 99.0954 21.2084 98.7408 21.6544C98.3861 22.0844 98.096 22.6418 97.8703 23.3266C97.6608 23.9955 97.556 24.7042 97.556 25.4527C97.556 26.1693 97.6608 26.7347 97.8703 27.1488C98.0799 27.5469 98.3458 27.746 98.6682 27.746Z" fill="white"/>
<path d="M116.465 30.8038C115.901 30.8038 115.409 30.6206 114.99 30.2544C114.571 29.8881 114.361 29.2908 114.361 28.4627C114.361 28.3831 114.361 28.3034 114.361 28.2238C114.361 28.1442 114.369 28.0645 114.385 27.9849C113.902 28.9405 113.354 29.6492 112.741 30.111C112.145 30.5569 111.54 30.7799 110.928 30.7799C110.364 30.7799 109.832 30.5888 109.332 30.2066C108.832 29.8084 108.429 29.2271 108.123 28.4627C107.817 27.6982 107.664 26.7745 107.664 25.6916C107.664 24.5768 107.817 23.5814 108.123 22.7055C108.445 21.8295 108.865 21.089 109.38 20.4838C109.896 19.8786 110.46 19.4247 111.073 19.1221C111.685 18.8036 112.282 18.6444 112.862 18.6444C113.507 18.6444 114.087 18.8434 114.603 19.2416C115.119 19.6238 115.473 20.2369 115.667 21.081C115.715 20.8103 115.747 20.5634 115.764 20.3405C115.796 20.1175 115.812 19.9662 115.812 19.8866C115.828 19.4566 116.046 19.1381 116.465 18.931C116.9 18.724 117.376 18.6205 117.891 18.6205C118.343 18.6205 118.77 18.7081 119.173 18.8832C119.576 19.0584 119.85 19.3531 119.995 19.7671L120.043 19.9105C119.85 20.3405 119.656 20.8581 119.463 21.4632C119.27 22.0684 119.092 22.7055 118.931 23.3744C118.77 24.0273 118.641 24.6723 118.544 25.3094C118.447 25.9305 118.399 26.4799 118.399 26.9577C118.399 27.4832 118.456 27.8495 118.568 28.0566C118.681 28.2477 118.818 28.3432 118.979 28.3432C119.253 28.3432 119.503 28.1521 119.729 27.7699L119.922 27.8655C119.922 28.4069 119.745 28.9006 119.39 29.3466C119.036 29.7925 118.593 30.1508 118.061 30.4216C117.529 30.6764 116.997 30.8038 116.465 30.8038ZM112.524 27.7699C112.943 27.7699 113.402 27.4036 113.902 26.671C114.418 25.9225 114.861 24.8555 115.232 23.4699C115.264 23.3266 115.296 23.1912 115.328 23.0638C115.361 22.9205 115.385 22.7851 115.401 22.6577C115.143 22.0684 114.869 21.6544 114.579 21.4155C114.305 21.1606 114.031 21.0332 113.757 21.0332C113.354 21.0332 112.975 21.2482 112.62 21.6782C112.282 22.0923 112 22.6179 111.774 23.2549C111.564 23.8919 111.46 24.529 111.46 25.166C111.46 26.0419 111.556 26.6949 111.75 27.1249C111.959 27.5549 112.217 27.7699 112.524 27.7699Z" fill="white"/>
<path d="M135.389 30.7799C134.809 30.7799 134.293 30.549 133.842 30.0871C133.391 29.6094 133.165 28.9405 133.165 28.0805C133.165 27.6664 133.213 27.1966 133.31 26.671C133.407 26.1455 133.52 25.6119 133.649 25.0705C133.778 24.5131 133.89 23.9955 133.987 23.5177C134.084 23.024 134.132 22.6179 134.132 22.2994C134.132 21.9649 134.068 21.7021 133.939 21.511C133.826 21.304 133.673 21.2005 133.479 21.2005C133.173 21.2005 132.859 21.4075 132.536 21.8216L132.391 21.726C132.375 21.4712 132.432 21.1686 132.561 20.8182C132.689 20.4679 132.891 20.1334 133.165 19.8149C133.439 19.4805 133.786 19.2018 134.205 18.9788C134.64 18.7558 135.148 18.6444 135.728 18.6444C136.582 18.6444 137.203 18.8912 137.59 19.3849C137.977 19.8627 138.17 20.444 138.17 21.1288C138.17 21.2403 138.162 21.3597 138.146 21.4871C138.146 21.5986 138.138 21.7101 138.122 21.8216C138.702 20.7864 139.306 19.9981 139.935 19.4566C140.58 18.8992 141.176 18.6205 141.724 18.6205C142.24 18.6205 142.619 18.8195 142.861 19.2177C143.103 19.6158 143.224 20.0936 143.224 20.651C143.224 21.1607 143.119 21.6782 142.909 22.2038C142.716 22.7294 142.418 23.1673 142.015 23.5177C141.628 23.8521 141.152 24.0114 140.588 23.9955L140.491 23.9477C140.475 23.5336 140.338 23.2071 140.08 22.9682C139.822 22.7294 139.532 22.6099 139.21 22.6099C138.775 22.6099 138.364 22.8249 137.977 23.2549C137.606 23.6849 137.421 24.306 137.421 25.1182C137.421 25.6119 137.477 26.1455 137.59 26.7188C137.703 27.2921 137.759 27.7779 137.759 28.176C137.759 28.6538 137.646 29.0918 137.421 29.4899C137.195 29.8881 136.905 30.2066 136.55 30.4455C136.195 30.6684 135.809 30.7799 135.389 30.7799Z" fill="#1B1B1B"/>
<path d="M148.947 35.4621C148.141 35.4621 147.488 35.2153 146.988 34.7216C146.505 34.2438 146.263 33.5908 146.263 32.7627C146.263 32.3327 146.335 31.8549 146.48 31.3294C146.642 30.8197 146.9 30.2782 147.254 29.7049C146.464 29.6571 145.812 29.3944 145.296 28.9166C144.796 28.4388 144.546 27.7142 144.546 26.7427C144.546 26.1694 144.619 25.5562 144.764 24.9032C144.925 24.2344 145.078 23.6132 145.223 23.0399C145.368 22.4506 145.441 21.9968 145.441 21.6782C145.441 21.4394 145.392 21.2721 145.296 21.1766C145.199 21.0651 145.086 21.0094 144.957 21.0094C144.828 21.0094 144.683 21.0651 144.522 21.1766C144.377 21.2721 144.264 21.4234 144.184 21.6305L143.772 21.2005C143.869 20.7068 144.079 20.2688 144.401 19.8866C144.723 19.5044 145.118 19.2018 145.586 18.9788C146.053 18.7558 146.537 18.6444 147.037 18.6444C147.601 18.6444 148.092 18.8275 148.512 19.1938C148.931 19.5442 149.14 20.1892 149.14 21.1288C149.14 21.7181 149.068 22.3551 148.923 23.0399C148.778 23.7088 148.632 24.3458 148.487 24.951C148.342 25.5403 148.27 26.0101 148.27 26.3605C148.27 26.679 148.334 26.9179 148.463 27.0771C148.608 27.2205 148.769 27.2921 148.947 27.2921C149.172 27.2921 149.43 27.1727 149.721 26.9338C150.011 26.679 150.285 26.2649 150.543 25.6916C150.801 25.1182 150.97 24.3458 151.05 23.3744C151.083 23.0718 151.107 22.6895 151.123 22.2277C151.139 21.7499 151.155 21.3119 151.171 20.9138C151.187 20.4997 151.195 20.2449 151.195 20.1494C151.195 19.576 151.405 19.1779 151.824 18.9549C152.259 18.716 152.735 18.5966 153.251 18.5966C153.702 18.5966 154.129 18.6842 154.532 18.8594C154.935 19.0345 155.209 19.3292 155.354 19.7432L155.403 19.8866C155.258 20.014 155.129 20.444 155.016 21.1766C154.919 21.9092 154.798 22.8886 154.653 24.1149C154.556 24.9112 154.435 25.811 154.29 26.8144C154.145 27.8177 153.944 28.829 153.686 29.8482C153.444 30.8516 153.114 31.7753 152.695 32.6194C152.292 33.4794 151.784 34.1642 151.171 34.6738C150.559 35.1994 149.817 35.4621 148.947 35.4621ZM148.366 32.7149C148.866 32.7149 149.309 32.261 149.696 31.3532C150.099 30.4614 150.414 29.1873 150.639 27.531C149.608 28.8369 148.898 29.8642 148.512 30.6127C148.125 31.3612 147.931 31.9027 147.931 32.2371C147.931 32.5556 148.076 32.7149 148.366 32.7149Z" fill="#1B1B1B"/>
<path d="M0 31.8788C0 30.5595 1.08254 29.4899 2.41791 29.4899H9.67164C11.007 29.4899 12.0896 30.5595 12.0896 31.8788C12.0896 33.1981 11.007 34.2677 9.67164 34.2677H2.41791C1.08254 34.2677 0 33.1981 0 31.8788Z" fill="#1B1B1B"/>
<path d="M1.20896 31.8788C1.20896 31.2191 1.75022 30.6844 2.41791 30.6844H9.67164C10.3393 30.6844 10.8806 31.2191 10.8806 31.8788C10.8806 32.5385 10.3393 33.0732 9.67164 33.0732H2.41791C1.75022 33.0732 1.20896 32.5385 1.20896 31.8788Z" fill="white"/>
<path d="M0 12.7677C0 11.4483 1.08254 10.3788 2.41791 10.3788H9.67164C11.007 10.3788 12.0896 11.4483 12.0896 12.7677C12.0896 14.087 11.007 15.1566 9.67164 15.1566H2.41791C1.08254 15.1566 0 14.087 0 12.7677Z" fill="#1B1B1B"/>
<path d="M1.20896 12.7677C1.20896 12.108 1.75022 11.5732 2.41791 11.5732H9.67164C10.3393 11.5732 10.8806 12.108 10.8806 12.7677C10.8806 13.4274 10.3393 13.9621 9.67164 13.9621H2.41791C1.75022 13.9621 1.20896 13.4274 1.20896 12.7677Z" fill="white"/>
<path d="M0 22.3232C0 21.0039 1.08254 19.9344 2.41791 19.9344H9.67164C11.007 19.9344 12.0896 21.0039 12.0896 22.3232C12.0896 23.6426 11.007 24.7121 9.67164 24.7121H2.41791C1.08254 24.7121 0 23.6426 0 22.3232Z" fill="#1B1B1B"/>
<path d="M1.20896 22.3232C1.20896 21.6636 1.75022 21.1288 2.41791 21.1288H9.67164C10.3393 21.1288 10.8806 21.6636 10.8806 22.3232C10.8806 22.9829 10.3393 23.5177 9.67164 23.5177H2.41791C1.75022 23.5177 1.20896 22.9829 1.20896 22.3232Z" fill="white"/>
</svg>
