<svg width="34" height="34" viewBox="0 0 34 34" fill="none" xmlns="http://www.w3.org/2000/svg">
<path d="M28.9773 0C30.3094 0 31.5869 0.529179 32.5289 1.47112C33.4708 2.41307 34 3.69062 34 5.02273V28.9773C34 30.3094 33.4708 31.5869 32.5289 32.5289C31.5869 33.4708 30.3094 34 28.9773 34H5.02273C3.69062 34 2.41307 33.4708 1.47112 32.5289C0.529179 31.5869 0 30.3094 0 28.9773V5.02273C0 3.69062 0.529179 2.41307 1.47112 1.47112C2.41307 0.529179 3.69062 0 5.02273 0H28.9773ZM31.6818 10.0501H2.31818V28.9773C2.31818 30.4702 3.52982 31.6818 5.02273 31.6818H28.9773C29.6946 31.6818 30.3825 31.3969 30.8897 30.8897C31.3969 30.3825 31.6818 29.6946 31.6818 28.9773V10.0501ZM8.88482 22.4106C9.39717 22.4106 9.88853 22.6142 10.2508 22.9765C10.6131 23.3387 10.8166 23.8301 10.8166 24.3425C10.8166 24.8548 10.6131 25.3462 10.2508 25.7085C9.88853 26.0707 9.39717 26.2743 8.88482 26.2743C8.37247 26.2743 7.8811 26.0707 7.51882 25.7085C7.15653 25.3462 6.953 24.8548 6.953 24.3425C6.953 23.8301 7.15653 23.3387 7.51882 22.9765C7.8811 22.6142 8.37247 22.4106 8.88482 22.4106ZM17.0046 22.4106C17.517 22.4106 18.0084 22.6142 18.3706 22.9765C18.7329 23.3387 18.9365 23.8301 18.9365 24.3425C18.9365 24.8548 18.7329 25.3462 18.3706 25.7085C18.0084 26.0707 17.517 26.2743 17.0046 26.2743C16.4923 26.2743 16.0009 26.0707 15.6386 25.7085C15.2763 25.3462 15.0728 24.8548 15.0728 24.3425C15.0728 23.8301 15.2763 23.3387 15.6386 22.9765C16.0009 22.6142 16.4923 22.4106 17.0046 22.4106ZM8.88482 14.6834C9.39717 14.6834 9.88853 14.8869 10.2508 15.2492C10.6131 15.6115 10.8166 16.1028 10.8166 16.6152C10.8166 17.1275 10.6131 17.6189 10.2508 17.9812C9.88853 18.3435 9.39717 18.547 8.88482 18.547C8.37247 18.547 7.8811 18.3435 7.51882 17.9812C7.15653 17.6189 6.953 17.1275 6.953 16.6152C6.953 16.1028 7.15653 15.6115 7.51882 15.2492C7.8811 14.8869 8.37247 14.6834 8.88482 14.6834ZM17.0046 14.6834C17.517 14.6834 18.0084 14.8869 18.3706 15.2492C18.7329 15.6115 18.9365 16.1028 18.9365 16.6152C18.9365 17.1275 18.7329 17.6189 18.3706 17.9812C18.0084 18.3435 17.517 18.547 17.0046 18.547C16.4923 18.547 16.0009 18.3435 15.6386 17.9812C15.2763 17.6189 15.0728 17.1275 15.0728 16.6152C15.0728 16.1028 15.2763 15.6115 15.6386 15.2492C16.0009 14.8869 16.4923 14.6834 17.0046 14.6834ZM25.126 14.6834C25.6383 14.6834 26.1297 14.8869 26.492 15.2492C26.8543 15.6115 27.0578 16.1028 27.0578 16.6152C27.0578 17.1275 26.8543 17.6189 26.492 17.9812C26.1297 18.3435 25.6383 18.547 25.126 18.547C24.6136 18.547 24.1223 18.3435 23.76 17.9812C23.3977 17.6189 23.1942 17.1275 23.1942 16.6152C23.1942 16.1028 23.3977 15.6115 23.76 15.2492C24.1223 14.8869 24.6136 14.6834 25.126 14.6834ZM28.9773 2.31818H5.02273C4.30544 2.31818 3.61753 2.60312 3.11032 3.11032C2.60312 3.61753 2.31818 4.30544 2.31818 5.02273V7.73191H31.6818V5.02273C31.6818 4.30544 31.3969 3.61753 30.8897 3.11032C30.3825 2.60312 29.6946 2.31818 28.9773 2.31818Z" fill="#1B1B1B"/>
</svg>
