<svg width="36" height="36" viewBox="0 0 36 36" fill="none" xmlns="http://www.w3.org/2000/svg">
<path d="M3 5C3 2.23858 5.23858 0 8 0H31C33.7614 0 36 2.23858 36 5V31C36 33.7614 33.7614 36 31 36H8C5.23858 36 3 33.7614 3 31V5Z" fill="#1B1B1B"/>
<path d="M22.728 26.14C22.248 26.14 21.7013 26.0533 21.088 25.88C20.488 25.7067 19.8546 25.52 19.188 25.32C18.5346 25.1067 17.8813 24.9533 17.228 24.86C16.7746 25.2867 16.348 25.5933 15.948 25.78C15.5613 25.9533 15.2146 26.04 14.908 26.04C14.5213 26.04 14.1946 25.9267 13.928 25.7C13.6613 25.4733 13.4613 25.1867 13.328 24.84C13.1946 24.48 13.128 24.1133 13.128 23.74C13.128 23.3533 13.1946 22.9867 13.328 22.64C13.4746 22.2933 13.6946 22.0133 13.988 21.8C14.2813 21.5733 14.6546 21.46 15.108 21.46C15.2013 21.46 15.3013 21.4667 15.408 21.48C15.5146 21.4933 15.628 21.5133 15.748 21.54C16.0013 20.7667 16.2213 19.9133 16.408 18.98C16.608 18.0333 16.7613 17.1067 16.868 16.2C16.988 15.2933 17.048 14.5067 17.048 13.84C17.048 13.5733 17.0346 13.3867 17.008 13.28C16.9813 13.16 16.9346 13.04 16.868 12.92L16.848 12.86C17.008 12.4333 17.2746 12.1 17.648 11.86C18.0213 11.62 18.4146 11.5 18.828 11.5C19.2813 11.5 19.6546 11.6667 19.948 12C20.2413 12.32 20.388 12.86 20.388 13.62C20.388 14.1 20.328 14.7 20.208 15.42C20.1013 16.1267 19.948 16.8933 19.748 17.72C19.548 18.5333 19.328 19.34 19.088 20.14C18.848 20.94 18.608 21.6533 18.368 22.28C18.9546 22.4133 19.5413 22.5667 20.128 22.74C20.728 22.9133 21.3146 23 21.888 23C22.328 23 22.748 22.92 23.148 22.76C23.5613 22.6 23.948 22.3067 24.308 21.88C24.5746 22.0533 24.768 22.3 24.888 22.62C25.0213 22.94 25.088 23.28 25.088 23.64C25.088 24.04 25.0013 24.4333 24.828 24.82C24.668 25.1933 24.4146 25.5067 24.068 25.76C23.7213 26.0133 23.2746 26.14 22.728 26.14Z" fill="white"/>
<path d="M23.7048 17.5L23.6648 17.32C24.4115 16.84 24.7848 16.1533 24.7848 15.26C24.7848 14.9533 24.7448 14.6133 24.6648 14.24C24.6382 14.0933 24.6115 13.9467 24.5848 13.8C24.5715 13.6533 24.5648 13.5067 24.5648 13.36C24.5648 12.68 24.7448 12.1667 25.1048 11.82C25.4782 11.4733 25.8915 11.3 26.3448 11.3C26.8782 11.3 27.2915 11.5 27.5848 11.9C27.8782 12.2867 28.0248 12.7667 28.0248 13.34C28.0248 13.78 27.9248 14.2467 27.7248 14.74C27.5382 15.22 27.2515 15.6733 26.8648 16.1C26.3848 16.6067 25.8582 16.9667 25.2848 17.18C24.7248 17.3933 24.1982 17.5 23.7048 17.5Z" fill="white"/>
<path d="M0 26C0 24.8954 0.895431 24 2 24H5C6.10457 24 7 24.8954 7 26C7 27.1046 6.10457 28 5 28H2C0.89543 28 0 27.1046 0 26Z" fill="#1B1B1B"/>
<path d="M1 26C1 25.4477 1.44772 25 2 25H5C5.55228 25 6 25.4477 6 26C6 26.5523 5.55228 27 5 27H2C1.44772 27 1 26.5523 1 26Z" fill="white"/>
<path d="M0 18C0 16.8954 0.895431 16 2 16H5C6.10457 16 7 16.8954 7 18C7 19.1046 6.10457 20 5 20H2C0.89543 20 0 19.1046 0 18Z" fill="#1B1B1B"/>
<path d="M1 18C1 17.4477 1.44772 17 2 17H5C5.55228 17 6 17.4477 6 18C6 18.5523 5.55228 19 5 19H2C1.44772 19 1 18.5523 1 18Z" fill="white"/>
<path d="M0 10C0 8.89543 0.895431 8 2 8H5C6.10457 8 7 8.89543 7 10C7 11.1046 6.10457 12 5 12H2C0.89543 12 0 11.1046 0 10Z" fill="#1B1B1B"/>
<path d="M1 10C1 9.44772 1.44772 9 2 9H5C5.55228 9 6 9.44772 6 10C6 10.5523 5.55228 11 5 11H2C1.44772 11 1 10.5523 1 10Z" fill="white"/>
</svg>
