<svg width="133" height="36" viewBox="0 0 133 36" fill="none" xmlns="http://www.w3.org/2000/svg">
<path d="M4 5.58862C4 2.8272 6.23858 0.588623 9 0.588623H105V35.5886H9C6.23857 35.5886 4 33.35 4 30.5886V5.58862Z" fill="white"/>
<path d="M28.8159 24.7286C28.3359 24.7286 27.7892 24.642 27.1759 24.4686C26.5759 24.2953 25.9425 24.1086 25.2759 23.9086C24.6225 23.6953 23.9692 23.542 23.3159 23.4486C22.8625 23.8753 22.4359 24.182 22.0359 24.3686C21.6492 24.542 21.3025 24.6286 20.9959 24.6286C20.6092 24.6286 20.2825 24.5153 20.0159 24.2886C19.7492 24.062 19.5492 23.7753 19.4159 23.4286C19.2825 23.0686 19.2159 22.702 19.2159 22.3286C19.2159 21.942 19.2825 21.5753 19.4159 21.2286C19.5625 20.882 19.7825 20.602 20.0759 20.3886C20.3692 20.162 20.7425 20.0486 21.1959 20.0486C21.2892 20.0486 21.3892 20.0553 21.4959 20.0686C21.6025 20.082 21.7159 20.102 21.8359 20.1286C22.0892 19.3553 22.3092 18.502 22.4959 17.5686C22.6959 16.622 22.8492 15.6953 22.9559 14.7886C23.0759 13.882 23.1359 13.0953 23.1359 12.4286C23.1359 12.162 23.1225 11.9753 23.0959 11.8686C23.0692 11.7486 23.0225 11.6286 22.9559 11.5086L22.9359 11.4486C23.0959 11.022 23.3625 10.6886 23.7359 10.4486C24.1092 10.2086 24.5025 10.0886 24.9159 10.0886C25.3692 10.0886 25.7425 10.2553 26.0359 10.5886C26.3292 10.9086 26.4759 11.4486 26.4759 12.2086C26.4759 12.6886 26.4159 13.2886 26.2959 14.0086C26.1892 14.7153 26.0359 15.482 25.8359 16.3086C25.6359 17.122 25.4159 17.9286 25.1759 18.7286C24.9359 19.5286 24.6959 20.242 24.4559 20.8686C25.0425 21.002 25.6292 21.1553 26.2159 21.3286C26.8159 21.502 27.4025 21.5886 27.9759 21.5886C28.4159 21.5886 28.8359 21.5086 29.2359 21.3486C29.6492 21.1886 30.0359 20.8953 30.3959 20.4686C30.6625 20.642 30.8559 20.8886 30.9759 21.2086C31.1092 21.5286 31.1759 21.8686 31.1759 22.2286C31.1759 22.6286 31.0892 23.022 30.9159 23.4086C30.7559 23.782 30.5025 24.0953 30.1559 24.3486C29.8092 24.602 29.3625 24.7286 28.8159 24.7286ZM29.7927 16.0886L29.7527 15.9086C30.4994 15.4286 30.8727 14.742 30.8727 13.8486C30.8727 13.542 30.8327 13.202 30.7527 12.8286C30.7261 12.682 30.6994 12.5353 30.6727 12.3886C30.6594 12.242 30.6527 12.0953 30.6527 11.9486C30.6527 11.2686 30.8327 10.7553 31.1927 10.4086C31.5661 10.062 31.9794 9.88862 32.4327 9.88862C32.9661 9.88862 33.3794 10.0886 33.6727 10.4886C33.9661 10.8753 34.1127 11.3553 34.1127 11.9286C34.1127 12.3686 34.0127 12.8353 33.8127 13.3286C33.6261 13.8086 33.3394 14.262 32.9527 14.6886C32.4727 15.1953 31.9461 15.5553 31.3727 15.7686C30.8127 15.982 30.2861 16.0886 29.7927 16.0886ZM40.2999 24.6886C39.8333 24.6886 39.4266 24.5353 39.0799 24.2286C38.7333 23.922 38.5599 23.422 38.5599 22.7286C38.5599 22.662 38.5599 22.5953 38.5599 22.5286C38.5599 22.462 38.5666 22.3953 38.5799 22.3286C38.1799 23.1286 37.7266 23.722 37.2199 24.1086C36.7266 24.482 36.2266 24.6686 35.7199 24.6686C35.2533 24.6686 34.8133 24.5086 34.3999 24.1886C33.9866 23.8553 33.6533 23.3686 33.3999 22.7286C33.1466 22.0886 33.0199 21.3153 33.0199 20.4086C33.0199 19.4753 33.1466 18.642 33.3999 17.9086C33.6666 17.1753 34.0133 16.5553 34.4399 16.0486C34.8666 15.542 35.3333 15.162 35.8399 14.9086C36.3466 14.642 36.8399 14.5086 37.3199 14.5086C37.8533 14.5086 38.3333 14.6753 38.7599 15.0086C39.1866 15.3286 39.4799 15.842 39.6399 16.5486C39.6799 16.322 39.7066 16.1153 39.7199 15.9286C39.7466 15.742 39.7599 15.6153 39.7599 15.5486C39.7733 15.1886 39.9533 14.922 40.2999 14.7486C40.6599 14.5753 41.0533 14.4886 41.4799 14.4886C41.8533 14.4886 42.2066 14.562 42.5399 14.7086C42.8733 14.8553 43.0999 15.102 43.2199 15.4486L43.2599 15.5686C43.0999 15.9286 42.9399 16.362 42.7799 16.8686C42.6199 17.3753 42.4733 17.9086 42.3399 18.4686C42.2066 19.0153 42.0999 19.5553 42.0199 20.0886C41.9399 20.6086 41.8999 21.0686 41.8999 21.4686C41.8999 21.9086 41.9466 22.2153 42.0399 22.3886C42.1333 22.5486 42.2466 22.6286 42.3799 22.6286C42.6066 22.6286 42.8133 22.4686 42.9999 22.1486L43.1599 22.2286C43.1599 22.682 43.0133 23.0953 42.7199 23.4686C42.4266 23.842 42.0599 24.142 41.6199 24.3686C41.1799 24.582 40.7399 24.6886 40.2999 24.6886ZM37.0399 22.1486C37.3866 22.1486 37.7666 21.842 38.1799 21.2286C38.6066 20.602 38.9733 19.7086 39.2799 18.5486C39.3066 18.4286 39.3333 18.3153 39.3599 18.2086C39.3866 18.0886 39.4066 17.9753 39.4199 17.8686C39.2066 17.3753 38.9799 17.0286 38.7399 16.8286C38.5133 16.6153 38.2866 16.5086 38.0599 16.5086C37.7266 16.5086 37.4133 16.6886 37.1199 17.0486C36.8399 17.3953 36.6066 17.8353 36.4199 18.3686C36.2466 18.902 36.1599 19.4353 36.1599 19.9686C36.1599 20.702 36.2399 21.2486 36.3999 21.6086C36.5733 21.9686 36.7866 22.1486 37.0399 22.1486ZM49.0518 28.5886C48.3985 28.5886 47.8585 28.3953 47.4318 28.0086C47.0051 27.622 46.7918 27.0753 46.7918 26.3686C46.7918 25.6086 47.0585 24.7153 47.5918 23.6886C47.4985 23.7153 47.4051 23.7353 47.3118 23.7486C47.2185 23.762 47.1251 23.7686 47.0318 23.7686C46.2585 23.7686 45.6051 23.4353 45.0718 22.7686C44.5518 22.0886 44.2918 21.1486 44.2918 19.9486C44.2918 18.8686 44.4985 17.9153 44.9118 17.0886C45.3385 16.262 45.8785 15.6153 46.5318 15.1486C47.1851 14.682 47.8651 14.4486 48.5718 14.4486C49.0651 14.4486 49.5118 14.5753 49.9118 14.8286C50.3118 15.0686 50.6385 15.462 50.8918 16.0086C50.9051 15.8753 50.9118 15.7553 50.9118 15.6486C50.9118 15.542 50.9118 15.442 50.9118 15.3486C50.9118 15.122 51.0851 14.9353 51.4318 14.7886C51.7785 14.642 52.1651 14.5686 52.5918 14.5686C52.9785 14.5686 53.3385 14.642 53.6718 14.7886C54.0051 14.9353 54.2251 15.182 54.3318 15.5286L54.3718 15.6486C54.2518 15.7553 54.1451 16.102 54.0518 16.6886C53.9718 17.2753 53.8718 18.0886 53.7518 19.1286C53.6718 19.782 53.5718 20.5286 53.4518 21.3686C53.3318 22.1953 53.1651 23.0353 52.9518 23.8886C52.7518 24.7286 52.4851 25.502 52.1518 26.2086C51.8185 26.9286 51.3985 27.502 50.8918 27.9286C50.3851 28.3686 49.7718 28.5886 49.0518 28.5886ZM48.3918 21.4686C48.7785 21.4686 49.2051 21.1553 49.6718 20.5286C50.1518 19.8886 50.5318 18.9753 50.8118 17.7886C50.5718 17.2686 50.3251 16.902 50.0718 16.6886C49.8318 16.462 49.5851 16.3486 49.3318 16.3486C48.9985 16.3486 48.6851 16.5153 48.3918 16.8486C48.0985 17.182 47.8585 17.6086 47.6718 18.1286C47.4985 18.6353 47.4118 19.162 47.4118 19.7086C47.4118 20.2686 47.5051 20.702 47.6918 21.0086C47.8785 21.3153 48.1118 21.4686 48.3918 21.4686ZM48.1518 26.2886C48.6051 26.2886 49.0651 25.842 49.5318 24.9486C50.0118 24.0686 50.3451 22.822 50.5318 21.2086C49.5185 22.582 48.8118 23.642 48.4118 24.3886C48.0251 25.122 47.8318 25.642 47.8318 25.9486C47.8318 26.1753 47.9385 26.2886 48.1518 26.2886ZM59.4684 24.7286C58.495 24.7286 57.6884 24.5353 57.0484 24.1486C56.4084 23.7486 55.9284 23.2286 55.6084 22.5886C55.2884 21.9353 55.1284 21.2353 55.1284 20.4886C55.1284 19.782 55.2617 19.0753 55.5284 18.3686C55.8084 17.6486 56.2084 16.9953 56.7284 16.4086C57.2617 15.822 57.9017 15.3486 58.6484 14.9886C59.4084 14.6286 60.2617 14.4486 61.2084 14.4486C62.3817 14.4486 63.235 14.7153 63.7684 15.2486C64.315 15.7686 64.5884 16.402 64.5884 17.1486C64.5884 17.7886 64.415 18.382 64.0684 18.9286C63.735 19.462 63.2884 19.8953 62.7284 20.2286C62.1684 20.5486 61.555 20.7086 60.8884 20.7086C60.5417 20.7086 60.1884 20.6553 59.8284 20.5486C59.4684 20.442 59.115 20.2753 58.7684 20.0486C58.835 20.8753 59.075 21.4753 59.4884 21.8486C59.9017 22.222 60.395 22.4086 60.9684 22.4086C61.3684 22.4086 61.7684 22.3353 62.1684 22.1886C62.5684 22.0286 62.935 21.8286 63.2684 21.5886C63.615 21.3353 63.8817 21.0686 64.0684 20.7886L64.2084 20.8886C64.2084 21.582 64.0617 22.1753 63.7684 22.6686C63.4884 23.1486 63.115 23.542 62.6484 23.8486C62.1817 24.1553 61.6684 24.382 61.1084 24.5286C60.5617 24.662 60.015 24.7286 59.4684 24.7286ZM59.9284 19.3286C60.355 19.3286 60.7017 19.2086 60.9684 18.9686C61.235 18.7153 61.435 18.422 61.5684 18.0886C61.7017 17.7553 61.7684 17.462 61.7684 17.2086C61.7684 16.902 61.6817 16.6486 61.5084 16.4486C61.335 16.2353 61.095 16.1286 60.7884 16.1286C60.5484 16.1286 60.2817 16.2153 59.9884 16.3886C59.7084 16.562 59.455 16.862 59.2284 17.2886C59.0017 17.702 58.855 18.282 58.7884 19.0286C59.215 19.2286 59.595 19.3286 59.9284 19.3286ZM67.9771 24.6486C67.4838 24.6486 67.0371 24.4553 66.6371 24.0686C66.2371 23.6686 66.0371 23.1153 66.0371 22.4086C66.0371 22.062 66.0838 21.6686 66.1771 21.2286C66.2704 20.7886 66.3704 20.342 66.4771 19.8886C66.5971 19.4353 66.7038 19.0086 66.7971 18.6086C66.8904 18.2086 66.9371 17.882 66.9371 17.6286C66.9371 17.362 66.8838 17.1553 66.7771 17.0086C66.6704 16.8486 66.5304 16.7686 66.3571 16.7686C66.1304 16.7686 65.8838 16.902 65.6171 17.1686L65.4971 17.0886C65.4838 16.8753 65.5304 16.622 65.6371 16.3286C65.7438 16.0353 65.9038 15.7553 66.1171 15.4886C66.3438 15.2086 66.6304 14.9753 66.9771 14.7886C67.3238 14.602 67.7371 14.5086 68.2171 14.5086C68.9238 14.5086 69.4438 14.7153 69.7771 15.1286C70.1238 15.5286 70.2971 16.022 70.2971 16.6086C70.2971 16.822 70.2771 17.0286 70.2371 17.2286C70.5171 16.8153 70.8638 16.402 71.2771 15.9886C71.6904 15.562 72.1438 15.2086 72.6371 14.9286C73.1438 14.6486 73.6638 14.5086 74.1971 14.5086C74.8238 14.5086 75.2504 14.7086 75.4771 15.1086C75.7038 15.5086 75.8171 16.0086 75.8171 16.6086C75.8171 17.1686 75.7571 17.7686 75.6371 18.4086C75.5171 19.0486 75.3971 19.6686 75.2771 20.2686C75.1571 20.8553 75.0971 21.3486 75.0971 21.7486C75.0971 22.282 75.2504 22.5486 75.5571 22.5486C75.7171 22.5486 75.8571 22.502 75.9771 22.4086C76.0971 22.302 76.1771 22.202 76.2171 22.1086L76.3571 22.1686C76.3571 22.662 76.2171 23.0953 75.9371 23.4686C75.6704 23.842 75.3304 24.1353 74.9171 24.3486C74.5038 24.5486 74.0838 24.6486 73.6571 24.6486C73.1371 24.6486 72.6771 24.4686 72.2771 24.1086C71.8771 23.7486 71.6771 23.162 71.6771 22.3486C71.6771 21.8686 71.7371 21.3486 71.8571 20.7886C71.9904 20.2286 72.1171 19.6886 72.2371 19.1686C72.3571 18.6486 72.4171 18.222 72.4171 17.8886C72.4171 17.6886 72.3771 17.5353 72.2971 17.4286C72.2304 17.3086 72.1038 17.2486 71.9171 17.2486C71.6104 17.2486 71.2704 17.3886 70.8971 17.6686C70.5371 17.9486 70.2238 18.322 69.9571 18.7886C69.7038 19.2553 69.5771 19.7686 69.5771 20.3286C69.5771 20.6886 69.6171 21.0353 69.6971 21.3686C69.7904 21.702 69.8371 22.062 69.8371 22.4486C69.8371 23.1686 69.6504 23.7153 69.2771 24.0886C68.9038 24.462 68.4704 24.6486 67.9771 24.6486ZM80.2745 24.6686C79.7945 24.6686 79.3411 24.502 78.9145 24.1686C78.5011 23.8353 78.1611 23.3486 77.8945 22.7086C77.6411 22.0686 77.5145 21.2953 77.5145 20.3886C77.5145 19.4553 77.6478 18.622 77.9145 17.8886C78.1811 17.1553 78.5278 16.5353 78.9545 16.0286C79.3945 15.5086 79.8678 15.1153 80.3745 14.8486C80.8945 14.582 81.4011 14.4486 81.8945 14.4486C82.4411 14.4486 82.9278 14.622 83.3545 14.9686C83.7811 15.302 84.0745 15.8286 84.2345 16.5486C84.3545 15.882 84.4545 15.2486 84.5345 14.6486C84.6278 14.0353 84.6745 13.4953 84.6745 13.0286C84.6745 12.4153 84.5945 11.9686 84.4345 11.6886V11.5686C84.7411 11.222 85.0745 10.9686 85.4345 10.8086C85.8078 10.6353 86.1611 10.5486 86.4945 10.5486C86.9345 10.5486 87.3078 10.6886 87.6145 10.9686C87.9211 11.2353 88.0745 11.622 88.0745 12.1286C88.0745 12.4086 88.0278 12.822 87.9345 13.3686C87.8411 13.9153 87.7278 14.542 87.5945 15.2486C87.4611 15.942 87.3211 16.662 87.1745 17.4086C87.0411 18.142 86.9278 18.8486 86.8345 19.5286C86.7411 20.1953 86.6945 20.7753 86.6945 21.2686C86.6945 21.682 86.7345 22.0153 86.8145 22.2686C86.9078 22.5086 87.0545 22.6286 87.2545 22.6286C87.4011 22.6286 87.5478 22.582 87.6945 22.4886C87.8545 22.382 87.9611 22.262 88.0145 22.1286L88.1545 22.2286C88.1545 22.6686 88.0145 23.0753 87.7345 23.4486C87.4545 23.8086 87.1011 24.102 86.6745 24.3286C86.2478 24.5553 85.8078 24.6686 85.3545 24.6686C84.8611 24.6686 84.4678 24.5353 84.1745 24.2686C83.8945 23.9886 83.6945 23.6353 83.5745 23.2086C83.4545 22.782 83.3878 22.342 83.3745 21.8886C82.9611 22.8486 82.4745 23.5553 81.9145 24.0086C81.3678 24.4486 80.8211 24.6686 80.2745 24.6686ZM81.6145 22.1286C81.9611 22.1286 82.3478 21.8153 82.7745 21.1886C83.2011 20.562 83.5745 19.6486 83.8945 18.4486L84.0145 17.8286C83.8011 17.3353 83.5678 16.9886 83.3145 16.7886C83.0745 16.5753 82.8411 16.4686 82.6145 16.4686C82.2811 16.4686 81.9678 16.6553 81.6745 17.0286C81.3811 17.3886 81.1411 17.8553 80.9545 18.4286C80.7811 18.9886 80.6945 19.582 80.6945 20.2086C80.6945 20.8086 80.7811 21.282 80.9545 21.6286C81.1278 21.962 81.3478 22.1286 81.6145 22.1286ZM96.3351 24.6886C95.8684 24.6886 95.4617 24.5353 95.1151 24.2286C94.7684 23.922 94.5951 23.422 94.5951 22.7286C94.5951 22.662 94.5951 22.5953 94.5951 22.5286C94.5951 22.462 94.6017 22.3953 94.6151 22.3286C94.2151 23.1286 93.7617 23.722 93.2551 24.1086C92.7617 24.482 92.2617 24.6686 91.7551 24.6686C91.2884 24.6686 90.8484 24.5086 90.4351 24.1886C90.0217 23.8553 89.6884 23.3686 89.4351 22.7286C89.1817 22.0886 89.0551 21.3153 89.0551 20.4086C89.0551 19.4753 89.1817 18.642 89.4351 17.9086C89.7017 17.1753 90.0484 16.5553 90.4751 16.0486C90.9017 15.542 91.3684 15.162 91.8751 14.9086C92.3817 14.642 92.8751 14.5086 93.3551 14.5086C93.8884 14.5086 94.3684 14.6753 94.7951 15.0086C95.2217 15.3286 95.5151 15.842 95.6751 16.5486C95.7151 16.322 95.7417 16.1153 95.7551 15.9286C95.7817 15.742 95.7951 15.6153 95.7951 15.5486C95.8084 15.1886 95.9884 14.922 96.3351 14.7486C96.6951 14.5753 97.0884 14.4886 97.5151 14.4886C97.8884 14.4886 98.2417 14.562 98.5751 14.7086C98.9084 14.8553 99.1351 15.102 99.2551 15.4486L99.2951 15.5686C99.1351 15.9286 98.9751 16.362 98.8151 16.8686C98.6551 17.3753 98.5084 17.9086 98.3751 18.4686C98.2417 19.0153 98.1351 19.5553 98.0551 20.0886C97.9751 20.6086 97.9351 21.0686 97.9351 21.4686C97.9351 21.9086 97.9817 22.2153 98.0751 22.3886C98.1684 22.5486 98.2817 22.6286 98.4151 22.6286C98.6417 22.6286 98.8484 22.4686 99.0351 22.1486L99.1951 22.2286C99.1951 22.682 99.0484 23.0953 98.7551 23.4686C98.4617 23.842 98.0951 24.142 97.6551 24.3686C97.2151 24.582 96.7751 24.6886 96.3351 24.6886ZM93.0751 22.1486C93.4217 22.1486 93.8017 21.842 94.2151 21.2286C94.6417 20.602 95.0084 19.7086 95.3151 18.5486C95.3417 18.4286 95.3684 18.3153 95.3951 18.2086C95.4217 18.0886 95.4417 17.9753 95.4551 17.8686C95.2417 17.3753 95.0151 17.0286 94.7751 16.8286C94.5484 16.6153 94.3217 16.5086 94.0951 16.5086C93.7617 16.5086 93.4484 16.6886 93.1551 17.0486C92.8751 17.3953 92.6417 17.8353 92.4551 18.3686C92.2817 18.902 92.1951 19.4353 92.1951 19.9686C92.1951 20.702 92.2751 21.2486 92.4351 21.6086C92.6084 21.9686 92.8217 22.1486 93.0751 22.1486Z" fill="#1B1B1B"/>
<path d="M0.5 10.5886C0.5 9.7602 1.17157 9.08862 2 9.08862H8C8.82843 9.08862 9.5 9.7602 9.5 10.5886C9.5 11.4171 8.82843 12.0886 8 12.0886H2C1.17157 12.0886 0.5 11.4171 0.5 10.5886Z" fill="#1E1E1E" stroke="white"/>
<path d="M0.5 17.5886C0.5 16.7602 1.17157 16.0886 2 16.0886H8C8.82843 16.0886 9.5 16.7602 9.5 17.5886C9.5 18.4171 8.82843 19.0886 8 19.0886H2C1.17157 19.0886 0.5 18.4171 0.5 17.5886Z" fill="#1E1E1E" stroke="white"/>
<path d="M0.5 25.5886C0.5 24.7602 1.17157 24.0886 2 24.0886H8C8.82843 24.0886 9.5 24.7602 9.5 25.5886C9.5 26.4171 8.82843 27.0886 8 27.0886H2C1.17157 27.0886 0.5 26.4171 0.5 25.5886Z" fill="#1E1E1E" stroke="white"/>
<path d="M105.5 1.08862H128C130.485 1.08862 132.5 3.10334 132.5 5.58862V30.5886C132.5 33.0739 130.485 35.0886 128 35.0886H105.5V1.08862Z" stroke="white"/>
<path d="M111.989 24.6686C111.509 24.6686 111.082 24.4753 110.709 24.0886C110.335 23.6886 110.149 23.1286 110.149 22.4086C110.149 22.062 110.189 21.6686 110.269 21.2286C110.349 20.7886 110.442 20.342 110.549 19.8886C110.655 19.422 110.749 18.9886 110.829 18.5886C110.909 18.1753 110.949 17.8353 110.949 17.5686C110.949 17.2886 110.895 17.0686 110.789 16.9086C110.695 16.7353 110.569 16.6486 110.409 16.6486C110.155 16.6486 109.895 16.822 109.629 17.1686L109.509 17.0886C109.495 16.8753 109.542 16.622 109.649 16.3286C109.755 16.0353 109.922 15.7553 110.149 15.4886C110.375 15.2086 110.662 14.9753 111.009 14.7886C111.369 14.602 111.789 14.5086 112.269 14.5086C112.975 14.5086 113.489 14.7153 113.809 15.1286C114.129 15.5286 114.289 16.0153 114.289 16.5886C114.289 16.682 114.282 16.782 114.269 16.8886C114.269 16.982 114.262 17.0753 114.249 17.1686C114.729 16.302 115.229 15.642 115.749 15.1886C116.282 14.722 116.775 14.4886 117.229 14.4886C117.655 14.4886 117.969 14.6553 118.169 14.9886C118.369 15.322 118.469 15.722 118.469 16.1886C118.469 16.6153 118.382 17.0486 118.209 17.4886C118.049 17.9286 117.802 18.2953 117.469 18.5886C117.149 18.8686 116.755 19.002 116.289 18.9886L116.209 18.9486C116.195 18.602 116.082 18.3286 115.869 18.1286C115.655 17.9286 115.415 17.8286 115.149 17.8286C114.789 17.8286 114.449 18.0086 114.129 18.3686C113.822 18.7286 113.669 19.2486 113.669 19.9286C113.669 20.342 113.715 20.7886 113.809 21.2686C113.902 21.7486 113.949 22.1553 113.949 22.4886C113.949 22.8886 113.855 23.2553 113.669 23.5886C113.482 23.922 113.242 24.1886 112.949 24.3886C112.655 24.5753 112.335 24.6686 111.989 24.6686ZM123.203 28.5886C122.536 28.5886 121.996 28.382 121.583 27.9686C121.183 27.5686 120.983 27.022 120.983 26.3286C120.983 25.9686 121.043 25.5686 121.163 25.1286C121.296 24.702 121.51 24.2486 121.803 23.7686C121.15 23.7286 120.61 23.5086 120.183 23.1086C119.77 22.7086 119.563 22.102 119.563 21.2886C119.563 20.8086 119.623 20.2953 119.743 19.7486C119.876 19.1886 120.003 18.6686 120.123 18.1886C120.243 17.6953 120.303 17.3153 120.303 17.0486C120.303 16.8486 120.263 16.7086 120.183 16.6286C120.103 16.5353 120.01 16.4886 119.903 16.4886C119.796 16.4886 119.676 16.5353 119.543 16.6286C119.423 16.7086 119.33 16.8353 119.263 17.0086L118.923 16.6486C119.003 16.2353 119.176 15.8686 119.443 15.5486C119.71 15.2286 120.036 14.9753 120.423 14.7886C120.81 14.602 121.21 14.5086 121.623 14.5086C122.09 14.5086 122.496 14.662 122.843 14.9686C123.19 15.262 123.363 15.802 123.363 16.5886C123.363 17.082 123.303 17.6153 123.183 18.1886C123.063 18.7486 122.943 19.282 122.823 19.7886C122.703 20.282 122.643 20.6753 122.643 20.9686C122.643 21.2353 122.696 21.4353 122.803 21.5686C122.923 21.6886 123.056 21.7486 123.203 21.7486C123.39 21.7486 123.603 21.6486 123.843 21.4486C124.083 21.2353 124.31 20.8886 124.523 20.4086C124.736 19.9286 124.876 19.282 124.943 18.4686C124.97 18.2153 124.99 17.8953 125.003 17.5086C125.016 17.1086 125.03 16.742 125.043 16.4086C125.056 16.062 125.063 15.8486 125.063 15.7686C125.063 15.2886 125.236 14.9553 125.583 14.7686C125.943 14.5686 126.336 14.4686 126.763 14.4686C127.136 14.4686 127.49 14.542 127.823 14.6886C128.156 14.8353 128.383 15.082 128.503 15.4286L128.543 15.5486C128.423 15.6553 128.316 16.0153 128.223 16.6286C128.143 17.242 128.043 18.062 127.923 19.0886C127.843 19.7553 127.743 20.5086 127.623 21.3486C127.503 22.1886 127.336 23.0353 127.123 23.8886C126.923 24.7286 126.65 25.502 126.303 26.2086C125.97 26.9286 125.55 27.502 125.043 27.9286C124.536 28.3686 123.923 28.5886 123.203 28.5886ZM122.723 26.2886C123.136 26.2886 123.503 25.9086 123.823 25.1486C124.156 24.402 124.416 23.3353 124.603 21.9486C123.75 23.042 123.163 23.902 122.843 24.5286C122.523 25.1553 122.363 25.6086 122.363 25.8886C122.363 26.1553 122.483 26.2886 122.723 26.2886Z" fill="white"/>
</svg>
