<svg width="100" height="26" viewBox="0 0 100 26" fill="none" xmlns="http://www.w3.org/2000/svg">
<path d="M74.6269 0H96.2687C98.3294 0 100 1.61675 100 3.61111V22.3889C100 24.3833 98.3294 26 96.2687 26H74.6269V0Z" fill="#1B1B1B"/>
<path d="M73.8806 0.722222H96.2687C97.9173 0.722222 99.2537 2.01562 99.2537 3.61111V22.3889C99.2537 23.9844 97.9173 25.2778 96.2687 25.2778H73.8806V0.722222Z" fill="white"/>
<path d="M2.98507 3.61111C2.98507 1.61675 4.65565 0 6.71642 0H74.6269C76.6876 0 78.3582 1.61675 78.3582 3.61111V22.3889C78.3582 24.3833 76.6876 26 74.6269 26H6.71642C4.65565 26 2.98507 24.3833 2.98507 22.3889V3.61111Z" fill="#1B1B1B"/>
<path d="M21.5044 18.1567C21.1462 18.1567 20.7382 18.0941 20.2805 17.9689C19.8327 17.8437 19.3601 17.7089 18.8626 17.5644C18.375 17.4104 17.8875 17.2996 17.3999 17.2322C17.0616 17.5404 16.7432 17.7619 16.4447 17.8967C16.1561 18.0219 15.8974 18.0844 15.6686 18.0844C15.38 18.0844 15.1362 18.0026 14.9372 17.8389C14.7382 17.6752 14.5889 17.4681 14.4894 17.2178C14.3899 16.9578 14.3402 16.693 14.3402 16.4233C14.3402 16.1441 14.3899 15.8793 14.4894 15.6289C14.5989 15.3785 14.7631 15.1763 14.982 15.0222C15.2009 14.8585 15.4795 14.7767 15.8178 14.7767C15.8875 14.7767 15.9621 14.7815 16.0417 14.7911C16.1213 14.8007 16.2059 14.8152 16.2954 14.8344C16.4845 14.2759 16.6487 13.6596 16.788 12.9856C16.9372 12.3019 17.0516 11.6326 17.1312 10.9778C17.2208 10.323 17.2656 9.75481 17.2656 9.27333C17.2656 9.08074 17.2556 8.94593 17.2357 8.86889C17.2158 8.78222 17.181 8.69556 17.1312 8.60889L17.1163 8.56556C17.2357 8.25741 17.4347 8.01667 17.7133 7.84333C17.9919 7.67 18.2855 7.58333 18.5939 7.58333C18.9322 7.58333 19.2108 7.7037 19.4297 7.94444C19.6487 8.17556 19.7581 8.56556 19.7581 9.11444C19.7581 9.46111 19.7133 9.89444 19.6238 10.4144C19.5442 10.9248 19.4297 11.4785 19.2805 12.0756C19.1312 12.663 18.9671 13.2456 18.788 13.8233C18.6089 14.4011 18.4297 14.9163 18.2506 15.3689C18.6885 15.4652 19.1263 15.5759 19.5641 15.7011C20.0118 15.8263 20.4496 15.8889 20.8775 15.8889C21.2059 15.8889 21.5193 15.8311 21.8178 15.7156C22.1263 15.6 22.4148 15.3881 22.6835 15.08C22.8825 15.2052 23.0268 15.3833 23.1163 15.6144C23.2158 15.8456 23.2656 16.0911 23.2656 16.3511C23.2656 16.64 23.2009 16.9241 23.0715 17.2033C22.9521 17.473 22.7631 17.6993 22.5044 17.8822C22.2457 18.0652 21.9123 18.1567 21.5044 18.1567Z" fill="white"/>
<path d="M22.2334 11.9167L22.2035 11.7867C22.7607 11.44 23.0394 10.9441 23.0394 10.2989C23.0394 10.0774 23.0095 9.83185 22.9498 9.56222C22.9299 9.4563 22.91 9.35037 22.8901 9.24444C22.8801 9.13852 22.8752 9.03259 22.8752 8.92667C22.8752 8.43556 23.0095 8.06481 23.2782 7.81444C23.5568 7.56407 23.8652 7.43889 24.2035 7.43889C24.6015 7.43889 24.91 7.58333 25.1289 7.87222C25.3478 8.15148 25.4573 8.49815 25.4573 8.91222C25.4573 9.23 25.3826 9.56704 25.2334 9.92333C25.0941 10.27 24.8801 10.5974 24.5916 10.9056C24.2334 11.2715 23.8403 11.5315 23.4125 11.6856C22.9946 11.8396 22.6015 11.9167 22.2334 11.9167Z" fill="white"/>
<path d="M30.0746 18.1278C29.7263 18.1278 29.4228 18.017 29.1641 17.7956C28.9054 17.5741 28.7761 17.213 28.7761 16.7122C28.7761 16.6641 28.7761 16.6159 28.7761 16.5678C28.7761 16.5196 28.781 16.4715 28.791 16.4233C28.4925 17.0011 28.1542 17.4296 27.7761 17.7089C27.4079 17.9785 27.0348 18.1133 26.6567 18.1133C26.3084 18.1133 25.98 17.9978 25.6716 17.7667C25.3631 17.5259 25.1144 17.1744 24.9253 16.7122C24.7363 16.25 24.6417 15.6915 24.6417 15.0367C24.6417 14.3626 24.7363 13.7607 24.9253 13.2311C25.1243 12.7015 25.383 12.2537 25.7014 11.8878C26.0198 11.5219 26.3681 11.2474 26.7462 11.0644C27.1243 10.8719 27.4925 10.7756 27.8507 10.7756C28.2487 10.7756 28.6069 10.8959 28.9253 11.1367C29.2437 11.3678 29.4626 11.7385 29.582 12.2489C29.6119 12.0852 29.6318 11.9359 29.6417 11.8011C29.6616 11.6663 29.6716 11.5748 29.6716 11.5267C29.6815 11.2667 29.8159 11.0741 30.0746 10.9489C30.3432 10.8237 30.6368 10.7611 30.9552 10.7611C31.2338 10.7611 31.4975 10.8141 31.7462 10.92C31.995 11.0259 32.1641 11.2041 32.2537 11.4544L32.2835 11.5411C32.1641 11.8011 32.0447 12.1141 31.9253 12.48C31.8059 12.8459 31.6965 13.2311 31.597 13.6356C31.4975 14.0304 31.4179 14.4204 31.3581 14.8056C31.2984 15.1811 31.2686 15.5133 31.2686 15.8022C31.2686 16.12 31.3034 16.3415 31.3731 16.4667C31.4427 16.5822 31.5273 16.64 31.6268 16.64C31.796 16.64 31.9502 16.5244 32.0895 16.2933L32.2089 16.3511C32.2089 16.6785 32.0994 16.977 31.8805 17.2467C31.6616 17.5163 31.388 17.733 31.0596 17.8967C30.7313 18.0507 30.4029 18.1278 30.0746 18.1278ZM27.6417 16.2933C27.9004 16.2933 28.184 16.0719 28.4925 15.6289C28.8109 15.1763 29.0845 14.5311 29.3134 13.6933C29.3333 13.6067 29.3532 13.5248 29.3731 13.4478C29.393 13.3611 29.4079 13.2793 29.4179 13.2022C29.2586 12.8459 29.0895 12.5956 28.9104 12.4511C28.7412 12.297 28.5721 12.22 28.4029 12.22C28.1542 12.22 27.9203 12.35 27.7014 12.61C27.4925 12.8604 27.3183 13.1781 27.179 13.5633C27.0497 13.9485 26.985 14.3337 26.985 14.7189C26.985 15.2485 27.0447 15.6433 27.1641 15.9033C27.2935 16.1633 27.4527 16.2933 27.6417 16.2933Z" fill="white"/>
<path d="M36.6058 20.9444C36.1183 20.9444 35.7153 20.8048 35.3969 20.5256C35.0785 20.2463 34.9193 19.8515 34.9193 19.3411C34.9193 18.7922 35.1183 18.147 35.5163 17.4056C35.4466 17.4248 35.377 17.4393 35.3073 17.4489C35.2377 17.4585 35.168 17.4633 35.0984 17.4633C34.5212 17.4633 34.0337 17.2226 33.6357 16.7411C33.2476 16.25 33.0536 15.5711 33.0536 14.7044C33.0536 13.9244 33.2078 13.2359 33.5163 12.6389C33.8347 12.0419 34.2377 11.5748 34.7252 11.2378C35.2128 10.9007 35.7202 10.7322 36.2476 10.7322C36.6158 10.7322 36.9491 10.8237 37.2476 11.0067C37.5461 11.18 37.7899 11.4641 37.979 11.8589C37.9889 11.7626 37.9939 11.6759 37.9939 11.5989C37.9939 11.5219 37.9939 11.4496 37.9939 11.3822C37.9939 11.2185 38.1232 11.0837 38.3819 10.9778C38.6406 10.8719 38.9292 10.8189 39.2476 10.8189C39.5362 10.8189 39.8048 10.8719 40.0536 10.9778C40.3023 11.0837 40.4665 11.2619 40.5461 11.5122L40.576 11.5989C40.4864 11.6759 40.4068 11.9263 40.3372 12.35C40.2775 12.7737 40.2028 13.3611 40.1133 14.1122C40.0536 14.5841 39.979 15.1233 39.8894 15.73C39.7999 16.327 39.6755 16.9337 39.5163 17.55C39.367 18.1567 39.168 18.7152 38.9193 19.2256C38.6705 19.7456 38.3571 20.1596 37.979 20.4678C37.6008 20.7856 37.1431 20.9444 36.6058 20.9444ZM36.1133 15.8022C36.4018 15.8022 36.7202 15.5759 37.0685 15.1233C37.4267 14.6611 37.7103 14.0015 37.9193 13.1444C37.7401 12.7689 37.5561 12.5041 37.367 12.35C37.1879 12.1863 37.0038 12.1044 36.8148 12.1044C36.566 12.1044 36.3322 12.2248 36.1133 12.4656C35.8944 12.7063 35.7153 13.0144 35.576 13.39C35.4466 13.7559 35.3819 14.1363 35.3819 14.5311C35.3819 14.9356 35.4516 15.2485 35.5909 15.47C35.7302 15.6915 35.9043 15.8022 36.1133 15.8022ZM35.9342 19.2833C36.2725 19.2833 36.6158 18.9607 36.964 18.3156C37.3222 17.68 37.571 16.7796 37.7103 15.6144C36.9541 16.6063 36.4267 17.3719 36.1282 17.9111C35.8396 18.4407 35.6954 18.8163 35.6954 19.0378C35.6954 19.2015 35.775 19.2833 35.9342 19.2833Z" fill="white"/>
<path d="M44.3794 18.1567C43.653 18.1567 43.051 18.017 42.5734 17.7378C42.0958 17.4489 41.7376 17.0733 41.4988 16.6111C41.26 16.1393 41.1406 15.6337 41.1406 15.0944C41.1406 14.5841 41.2401 14.0737 41.4391 13.5633C41.648 13.0433 41.9465 12.5715 42.3346 12.1478C42.7326 11.7241 43.2102 11.3822 43.7674 11.1222C44.3346 10.8622 44.9714 10.7322 45.6779 10.7322C46.5535 10.7322 47.1903 10.9248 47.5883 11.31C47.9963 11.6856 48.2003 12.143 48.2003 12.6822C48.2003 13.1444 48.0709 13.573 47.8122 13.9678C47.5635 14.353 47.2301 14.6659 46.8122 14.9067C46.3943 15.1378 45.9366 15.2533 45.4391 15.2533C45.1804 15.2533 44.9167 15.2148 44.648 15.1378C44.3794 15.0607 44.1157 14.9404 43.857 14.7767C43.9067 15.3737 44.0858 15.807 44.3943 16.0767C44.7028 16.3463 45.0709 16.4811 45.4988 16.4811C45.7973 16.4811 46.0958 16.4281 46.3943 16.3222C46.6928 16.2067 46.9664 16.0622 47.2152 15.8889C47.4739 15.7059 47.6729 15.5133 47.8122 15.3111L47.9167 15.3833C47.9167 15.8841 47.8072 16.3126 47.5883 16.6689C47.3794 17.0156 47.1008 17.2996 46.7525 17.5211C46.4043 17.7426 46.0212 17.9063 45.6033 18.0122C45.1953 18.1085 44.7873 18.1567 44.3794 18.1567ZM44.7227 14.2567C45.0411 14.2567 45.2998 14.17 45.4988 13.9967C45.6978 13.8137 45.847 13.6019 45.9465 13.3611C46.046 13.1204 46.0958 12.9085 46.0958 12.7256C46.0958 12.5041 46.0311 12.3211 45.9018 12.1767C45.7724 12.0226 45.5933 11.9456 45.3644 11.9456C45.1853 11.9456 44.9863 12.0081 44.7674 12.1333C44.5585 12.2585 44.3694 12.4752 44.2003 12.7833C44.0311 13.0819 43.9217 13.5007 43.8719 14.04C44.1903 14.1844 44.4739 14.2567 44.7227 14.2567Z" fill="white"/>
<path d="M50.7292 18.0989C50.361 18.0989 50.0277 17.9593 49.7292 17.68C49.4307 17.3911 49.2814 16.9915 49.2814 16.4811C49.2814 16.2307 49.3162 15.9467 49.3859 15.6289C49.4556 15.3111 49.5302 14.9885 49.6098 14.6611C49.6993 14.3337 49.7789 14.0256 49.8486 13.7367C49.9182 13.4478 49.9531 13.2119 49.9531 13.0289C49.9531 12.8363 49.9133 12.687 49.8337 12.5811C49.7541 12.4656 49.6496 12.4078 49.5202 12.4078C49.3511 12.4078 49.167 12.5041 48.968 12.6967L48.8784 12.6389C48.8685 12.4848 48.9033 12.3019 48.9829 12.09C49.0625 11.8781 49.1819 11.6759 49.3411 11.4833C49.5103 11.2811 49.7242 11.1126 49.9829 10.9778C50.2416 10.843 50.5501 10.7756 50.9083 10.7756C51.4357 10.7756 51.8237 10.9248 52.0725 11.2233C52.3312 11.5122 52.4605 11.8685 52.4605 12.2922C52.4605 12.4463 52.4456 12.5956 52.4157 12.74C52.6247 12.4415 52.8834 12.143 53.1919 11.8444C53.5003 11.5363 53.8386 11.2811 54.2068 11.0789C54.5849 10.8767 54.973 10.7756 55.371 10.7756C55.8386 10.7756 56.157 10.92 56.3262 11.2089C56.4954 11.4978 56.5799 11.8589 56.5799 12.2922C56.5799 12.6967 56.5352 13.13 56.4456 13.5922C56.356 14.0544 56.2665 14.5022 56.1769 14.9356C56.0874 15.3593 56.0426 15.7156 56.0426 16.0044C56.0426 16.3896 56.1571 16.5822 56.3859 16.5822C56.5053 16.5822 56.6098 16.5485 56.6993 16.4811C56.7889 16.4041 56.8486 16.3319 56.8784 16.2644L56.9829 16.3078C56.9829 16.6641 56.8784 16.977 56.6695 17.2467C56.4705 17.5163 56.2167 17.7281 55.9083 17.8822C55.5998 18.0267 55.2864 18.0989 54.968 18.0989C54.5799 18.0989 54.2366 17.9689 53.9381 17.7089C53.6396 17.4489 53.4904 17.0252 53.4904 16.4378C53.4904 16.0911 53.5352 15.7156 53.6247 15.3111C53.7242 14.9067 53.8187 14.5167 53.9083 14.1411C53.9978 13.7656 54.0426 13.4574 54.0426 13.2167C54.0426 13.0722 54.0128 12.9615 53.9531 12.8844C53.9033 12.7978 53.8088 12.7544 53.6695 12.7544C53.4406 12.7544 53.1869 12.8556 52.9083 13.0578C52.6396 13.26 52.4058 13.5296 52.2068 13.8667C52.0177 14.2037 51.9232 14.5744 51.9232 14.9789C51.9232 15.2389 51.9531 15.4893 52.0128 15.73C52.0824 15.9707 52.1172 16.2307 52.1172 16.51C52.1172 17.03 51.9779 17.4248 51.6993 17.6944C51.4207 17.9641 51.0973 18.0989 50.7292 18.0989Z" fill="white"/>
<path d="M59.9063 18.1133C59.5481 18.1133 59.2098 17.993 58.8914 17.7522C58.5829 17.5115 58.3292 17.16 58.1302 16.6978C57.9411 16.2356 57.8466 15.677 57.8466 15.0222C57.8466 14.3481 57.9461 13.7463 58.1451 13.2167C58.3441 12.687 58.6028 12.2393 58.9212 11.8733C59.2496 11.4978 59.6028 11.2137 59.9809 11.0211C60.369 10.8285 60.7471 10.7322 61.1153 10.7322C61.5232 10.7322 61.8864 10.8574 62.2048 11.1078C62.5232 11.3485 62.7421 11.7289 62.8615 12.2489C62.9511 11.7674 63.0257 11.31 63.0854 10.8767C63.1551 10.4337 63.1899 10.0437 63.1899 9.70667C63.1899 9.2637 63.1302 8.94111 63.0108 8.73889V8.65222C63.2396 8.40185 63.4884 8.21889 63.7571 8.10333C64.0357 7.97815 64.2993 7.91556 64.5481 7.91556C64.8765 7.91556 65.1551 8.01667 65.3839 8.21889C65.6128 8.41148 65.7272 8.69074 65.7272 9.05667C65.7272 9.25889 65.6924 9.55741 65.6227 9.95222C65.5531 10.347 65.4685 10.7996 65.369 11.31C65.2695 11.8107 65.165 12.3307 65.0556 12.87C64.9561 13.3996 64.8715 13.91 64.8018 14.4011C64.7322 14.8826 64.6973 15.3015 64.6973 15.6578C64.6973 15.9563 64.7272 16.197 64.7869 16.38C64.8566 16.5533 64.966 16.64 65.1153 16.64C65.2247 16.64 65.3342 16.6063 65.4436 16.5389C65.563 16.4619 65.6426 16.3752 65.6824 16.2789L65.7869 16.3511C65.7869 16.6689 65.6824 16.9626 65.4735 17.2322C65.2645 17.4922 65.0008 17.7041 64.6824 17.8678C64.364 18.0315 64.0357 18.1133 63.6973 18.1133C63.3292 18.1133 63.0357 18.017 62.8168 17.8244C62.6078 17.6222 62.4585 17.367 62.369 17.0589C62.2794 16.7507 62.2297 16.433 62.2197 16.1056C61.9113 16.7989 61.5481 17.3093 61.1302 17.6367C60.7222 17.9544 60.3143 18.1133 59.9063 18.1133ZM60.9063 16.2789C61.165 16.2789 61.4536 16.0526 61.772 15.6C62.0904 15.1474 62.369 14.4878 62.6078 13.6211L62.6973 13.1733C62.5381 12.817 62.364 12.5667 62.175 12.4222C61.9959 12.2681 61.8217 12.1911 61.6526 12.1911C61.4038 12.1911 61.17 12.3259 60.9511 12.5956C60.7322 12.8556 60.5531 13.1926 60.4138 13.6067C60.2844 14.0111 60.2197 14.4396 60.2197 14.8922C60.2197 15.3256 60.2844 15.6674 60.4138 15.9178C60.5431 16.1585 60.7073 16.2789 60.9063 16.2789Z" fill="white"/>
<path d="M71.8918 18.1278C71.5436 18.1278 71.2401 18.017 70.9814 17.7956C70.7227 17.5741 70.5933 17.213 70.5933 16.7122C70.5933 16.6641 70.5933 16.6159 70.5933 16.5678C70.5933 16.5196 70.5983 16.4715 70.6083 16.4233C70.3098 17.0011 69.9715 17.4296 69.5933 17.7089C69.2252 17.9785 68.852 18.1133 68.4739 18.1133C68.1257 18.1133 67.7973 17.9978 67.4889 17.7667C67.1804 17.5259 66.9317 17.1744 66.7426 16.7122C66.5535 16.25 66.459 15.6915 66.459 15.0367C66.459 14.3626 66.5535 13.7607 66.7426 13.2311C66.9416 12.7015 67.2003 12.2537 67.5187 11.8878C67.8371 11.5219 68.1854 11.2474 68.5635 11.0644C68.9416 10.8719 69.3098 10.7756 69.668 10.7756C70.066 10.7756 70.4242 10.8959 70.7426 11.1367C71.061 11.3678 71.2799 11.7385 71.3993 12.2489C71.4292 12.0852 71.4491 11.9359 71.459 11.8011C71.4789 11.6663 71.4889 11.5748 71.4889 11.5267C71.4988 11.2667 71.6331 11.0741 71.8918 10.9489C72.1605 10.8237 72.454 10.7611 72.7724 10.7611C73.051 10.7611 73.3147 10.8141 73.5635 10.92C73.8122 11.0259 73.9814 11.2041 74.071 11.4544L74.1008 11.5411C73.9814 11.8011 73.862 12.1141 73.7426 12.48C73.6232 12.8459 73.5137 13.2311 73.4142 13.6356C73.3147 14.0304 73.2351 14.4204 73.1754 14.8056C73.1157 15.1811 73.0859 15.5133 73.0859 15.8022C73.0859 16.12 73.1207 16.3415 73.1904 16.4667C73.26 16.5822 73.3446 16.64 73.4441 16.64C73.6132 16.64 73.7675 16.5244 73.9068 16.2933L74.0262 16.3511C74.0262 16.6785 73.9167 16.977 73.6978 17.2467C73.4789 17.5163 73.2053 17.733 72.8769 17.8967C72.5486 18.0507 72.2202 18.1278 71.8918 18.1278ZM69.459 16.2933C69.7177 16.2933 70.0013 16.0719 70.3098 15.6289C70.6282 15.1763 70.9018 14.5311 71.1307 13.6933C71.1506 13.6067 71.1705 13.5248 71.1904 13.4478C71.2103 13.3611 71.2252 13.2793 71.2351 13.2022C71.0759 12.8459 70.9068 12.5956 70.7277 12.4511C70.5585 12.297 70.3894 12.22 70.2202 12.22C69.9715 12.22 69.7376 12.35 69.5187 12.61C69.3098 12.8604 69.1356 13.1781 68.9963 13.5633C68.867 13.9485 68.8023 14.3337 68.8023 14.7189C68.8023 15.2485 68.862 15.6433 68.9814 15.9033C69.1108 16.1633 69.27 16.2933 69.459 16.2933Z" fill="white"/>
<path d="M83.5738 18.1133C83.2155 18.1133 82.8971 17.9737 82.6185 17.6944C82.3399 17.4056 82.2006 17.0011 82.2006 16.4811C82.2006 16.2307 82.2305 15.9467 82.2902 15.6289C82.3499 15.3111 82.4195 14.9885 82.4991 14.6611C82.5787 14.3241 82.6484 14.0111 82.7081 13.7222C82.7678 13.4237 82.7976 13.1781 82.7976 12.9856C82.7976 12.7833 82.7578 12.6244 82.6782 12.5089C82.6086 12.3837 82.514 12.3211 82.3946 12.3211C82.2056 12.3211 82.0116 12.4463 81.8126 12.6967L81.723 12.6389C81.7131 12.4848 81.7479 12.3019 81.8275 12.09C81.9071 11.8781 82.0315 11.6759 82.2006 11.4833C82.3698 11.2811 82.5837 11.1126 82.8424 10.9778C83.1111 10.843 83.4245 10.7756 83.7827 10.7756C84.3101 10.7756 84.6932 10.9248 84.932 11.2233C85.1708 11.5122 85.2902 11.8637 85.2902 12.2778C85.2902 12.3452 85.2852 12.4174 85.2752 12.4944C85.2752 12.5619 85.2703 12.6293 85.2603 12.6967C85.6185 12.0707 85.9917 11.5941 86.3797 11.2667C86.7777 10.9296 87.1459 10.7611 87.4842 10.7611C87.8026 10.7611 88.0364 10.8815 88.1857 11.1222C88.3349 11.363 88.4096 11.6519 88.4096 11.9889C88.4096 12.297 88.3449 12.61 88.2155 12.9278C88.0961 13.2456 87.9121 13.5104 87.6633 13.7222C87.4245 13.9244 87.131 14.0207 86.7827 14.0111L86.723 13.9822C86.7131 13.7319 86.6285 13.5344 86.4693 13.39C86.3101 13.2456 86.131 13.1733 85.932 13.1733C85.6633 13.1733 85.4096 13.3033 85.1708 13.5633C84.9419 13.8233 84.8275 14.1989 84.8275 14.69C84.8275 14.9885 84.8623 15.3111 84.932 15.6578C85.0016 16.0044 85.0364 16.2981 85.0364 16.5389C85.0364 16.8278 84.9668 17.0926 84.8275 17.3333C84.6882 17.5741 84.5091 17.7667 84.2902 17.9111C84.0713 18.0459 83.8325 18.1133 83.5738 18.1133Z" fill="#1B1B1B"/>
<path d="M91.9425 20.9444C91.4449 20.9444 91.042 20.7952 90.7335 20.4967C90.435 20.2078 90.2857 19.813 90.2857 19.3122C90.2857 19.0522 90.3305 18.7633 90.4201 18.4456C90.5196 18.1374 90.6788 17.81 90.8977 17.4633C90.4101 17.4344 90.0071 17.2756 89.6887 16.9867C89.3803 16.6978 89.226 16.2596 89.226 15.6722C89.226 15.3256 89.2708 14.9548 89.3604 14.56C89.4599 14.1556 89.5544 13.78 89.6439 13.4333C89.7335 13.077 89.7783 12.8026 89.7783 12.61C89.7783 12.4656 89.7484 12.3644 89.6887 12.3067C89.629 12.2393 89.5594 12.2056 89.4798 12.2056C89.4002 12.2056 89.3106 12.2393 89.2111 12.3067C89.1216 12.3644 89.0519 12.4559 89.0022 12.5811L88.7484 12.3211C88.8081 12.0226 88.9375 11.7578 89.1365 11.5267C89.3355 11.2956 89.5793 11.1126 89.8678 10.9778C90.1564 10.843 90.4549 10.7756 90.7634 10.7756C91.1116 10.7756 91.4151 10.8863 91.6738 11.1078C91.9325 11.3196 92.0619 11.7096 92.0619 12.2778C92.0619 12.6341 92.0171 13.0193 91.9275 13.4333C91.838 13.8378 91.7484 14.223 91.6589 14.5889C91.5693 14.9452 91.5245 15.2293 91.5245 15.4411C91.5245 15.6337 91.5643 15.7781 91.6439 15.8744C91.7335 15.9611 91.833 16.0044 91.9425 16.0044C92.0818 16.0044 92.241 15.9322 92.4201 15.7878C92.5992 15.6337 92.7683 15.3833 92.9275 15.0367C93.0867 14.69 93.1912 14.223 93.241 13.6356C93.2609 13.4526 93.2758 13.2215 93.2857 12.9422C93.2957 12.6533 93.3056 12.3885 93.3156 12.1478C93.3255 11.8974 93.3305 11.7433 93.3305 11.6856C93.3305 11.3389 93.4599 11.0981 93.7186 10.9633C93.9872 10.8189 94.2808 10.7467 94.5992 10.7467C94.8778 10.7467 95.1415 10.7996 95.3902 10.9056C95.639 11.0115 95.8081 11.1896 95.8977 11.44L95.9275 11.5267C95.838 11.6037 95.7584 11.8637 95.6887 12.3067C95.629 12.7496 95.5544 13.3419 95.4648 14.0833C95.4051 14.5648 95.3305 15.1089 95.241 15.7156C95.1514 16.3222 95.027 16.9337 94.8678 17.55C94.7186 18.1567 94.5146 18.7152 94.2559 19.2256C94.0071 19.7456 93.6937 20.1596 93.3156 20.4678C92.9375 20.7856 92.4798 20.9444 91.9425 20.9444ZM91.5843 19.2833C91.8927 19.2833 92.1663 19.0089 92.4051 18.46C92.6539 17.9207 92.8479 17.1504 92.9872 16.1489C92.3504 16.9385 91.9126 17.5596 91.6738 18.0122C91.435 18.4648 91.3156 18.7922 91.3156 18.9944C91.3156 19.187 91.4051 19.2833 91.5843 19.2833Z" fill="#1B1B1B"/>
<path d="M0 18.7778C0 17.98 0.668232 17.3333 1.49254 17.3333H5.97015C6.79445 17.3333 7.46269 17.98 7.46269 18.7778C7.46269 19.5755 6.79445 20.2222 5.97015 20.2222H1.49254C0.668232 20.2222 0 19.5755 0 18.7778Z" fill="#1B1B1B"/>
<path d="M0.746269 18.7778C0.746269 18.3789 1.08038 18.0556 1.49254 18.0556H5.97015C6.3823 18.0556 6.71642 18.3789 6.71642 18.7778C6.71642 19.1766 6.3823 19.5 5.97015 19.5H1.49254C1.08038 19.5 0.746269 19.1766 0.746269 18.7778Z" fill="white"/>
<path d="M0 7.22222C0 6.42448 0.668232 5.77778 1.49254 5.77778H5.97015C6.79445 5.77778 7.46269 6.42448 7.46269 7.22222C7.46269 8.01997 6.79445 8.66667 5.97015 8.66667H1.49254C0.668232 8.66667 0 8.01997 0 7.22222Z" fill="#1B1B1B"/>
<path d="M0.746269 7.22222C0.746269 6.82335 1.08038 6.5 1.49254 6.5H5.97015C6.3823 6.5 6.71642 6.82335 6.71642 7.22222C6.71642 7.62109 6.3823 7.94444 5.97015 7.94444H1.49254C1.08038 7.94444 0.746269 7.62109 0.746269 7.22222Z" fill="white"/>
<path d="M0 13C0 12.2023 0.668232 11.5556 1.49254 11.5556H5.97015C6.79445 11.5556 7.46269 12.2023 7.46269 13C7.46269 13.7977 6.79445 14.4444 5.97015 14.4444H1.49254C0.668232 14.4444 0 13.7977 0 13Z" fill="#1B1B1B"/>
<path d="M0.746269 13C0.746269 12.6011 1.08038 12.2778 1.49254 12.2778H5.97015C6.3823 12.2778 6.71642 12.6011 6.71642 13C6.71642 13.3989 6.3823 13.7222 5.97015 13.7222H1.49254C1.08038 13.7222 0.746269 13.3989 0.746269 13Z" fill="white"/>
</svg>
