<svg width="34" height="34" viewBox="0 0 34 34" fill="none" xmlns="http://www.w3.org/2000/svg">
<path fill-rule="evenodd" clip-rule="evenodd" d="M15.1233 3.41067e-08C12.7115 0.000205494 10.3348 0.577139 8.19135 1.68267C6.04791 2.78819 4.19995 4.39026 2.80163 6.3552C1.4033 8.32014 0.495173 10.591 0.152999 12.9782C-0.189175 15.3655 0.0445308 17.8 0.834618 20.0786C1.62471 22.3572 2.94826 24.4138 4.69487 26.0768C6.44147 27.7399 8.56047 28.9612 10.8751 29.6388C13.1897 30.3164 15.6328 30.4306 18.0005 29.972C20.3683 29.5135 22.592 28.4953 24.4863 27.0026L30.9845 33.5005C31.3201 33.8246 31.7696 34.004 32.2361 33.9999C32.7026 33.9959 33.1489 33.8088 33.4788 33.4789C33.8087 33.149 33.9959 32.7027 33.9999 32.2362C34.004 31.7696 33.8246 31.3202 33.5005 30.9846L27.0023 24.4866C28.7603 22.2565 29.8549 19.5765 30.1608 16.7533C30.4668 13.9302 29.9717 11.0779 28.7322 8.52298C27.4928 5.96805 25.559 3.81366 23.1523 2.30638C20.7456 0.799092 17.9631 -0.000190639 15.1233 3.41067e-08ZM3.55743 15.124C3.55743 12.0567 4.77598 9.11495 6.94499 6.94602C9.11401 4.77708 12.0558 3.55859 15.1233 3.55859C18.1907 3.55859 21.1325 4.77708 23.3016 6.94602C25.4706 9.11495 26.6891 12.0567 26.6891 15.124C26.6891 18.1913 25.4706 21.133 23.3016 23.302C21.1325 25.4709 18.1907 26.6894 15.1233 26.6894C12.0558 26.6894 9.11401 25.4709 6.94499 23.302C4.77598 21.133 3.55743 18.1913 3.55743 15.124Z" fill="#1B1B1B"/>
</svg>
