<svg width="143" height="142" viewBox="0 0 143 142" fill="none" xmlns="http://www.w3.org/2000/svg">
<path d="M130.196 142L92.1941 104.191C87.7186 107.754 82.5719 110.574 76.7538 112.651C70.9357 114.729 64.7447 115.768 58.1807 115.768C41.92 115.768 28.1595 110.164 16.8993 98.9551C5.63906 87.7464 0.00597199 74.0561 4.73592e-06 57.8841C-0.00596252 41.7122 5.62712 28.0219 16.8993 16.8131C28.1714 5.60437 41.9319 0 58.1807 0C74.4296 0 88.193 5.60437 99.4711 16.8131C110.749 28.0219 116.379 41.7122 116.361 57.8841C116.361 64.4146 115.317 70.5741 113.229 76.3625C111.14 82.1509 108.306 87.2714 104.725 91.7241L143 129.804L130.196 142ZM58.1807 97.9577C69.3693 97.9577 78.8811 94.0632 86.7161 86.274C94.5511 78.4849 98.4656 69.0216 98.4597 57.8841C98.4537 46.7466 94.5392 37.2863 86.7161 29.5031C78.8931 21.7199 69.3813 17.8224 58.1807 17.8105C46.9802 17.7986 37.4714 21.6962 29.6543 29.5031C21.8372 37.31 17.9197 46.7704 17.9018 57.8841C17.8839 68.9979 21.8014 78.4612 29.6543 86.274C37.5072 94.0869 47.016 97.9815 58.1807 97.9577Z" fill="#C96068"/>
</svg>
