<svg width="41" height="40" viewBox="0 0 41 40" fill="none" xmlns="http://www.w3.org/2000/svg">
<path fill-rule="evenodd" clip-rule="evenodd" d="M20 40C31.0459 40 40 31.0457 40 20C40 8.95435 31.0459 0 20 0C8.9541 0 0 8.95435 0 20C0 31.0457 8.9541 40 20 40ZM20 35C28.2842 35 35 28.2842 35 20C35 11.7158 28.2842 5 20 5C11.7158 5 5 11.7158 5 20C5 28.2842 11.7158 35 20 35Z" fill="white" fill-opacity="0.5"/>
<path fill-rule="evenodd" clip-rule="evenodd" d="M27 6.66699C31.8403 9.15527 35.1514 14.1987 35.1514 20.0156C35.1514 23.9033 33.6724 27.4458 31.2461 30.1106L34.7847 33.6489C38.1143 30.0767 40.1514 25.2842 40.1514 20.0156C40.1514 12.8276 36.3594 6.52539 30.667 3L27 6.66699Z" fill="white"/>
</svg>
